%FSLAX45Y45*%
G04 Gerber Fmt 4.5, Leading zero omitted, Abs format (unit mm)*
G04 Created by KiCad (PCBNEW (5.99.0-8445-ge10025db64)) date 2022-01-30 21:55:43*
%MOMM*%
%LPD*%
G01*
G04 APERTURE LIST*
%TA.AperFunction,Profile*%
%ADD10C,0.100000*%
%TD*%
%ADD11C,0.200000*%
%ADD12C,0.033000*%
%ADD13C,0.040000*%
%ADD14C,0.070000*%
%ADD15C,0.075000*%
%ADD16C,0.080000*%
%ADD17C,0.100000*%
%ADD18C,0.120000*%
G04 APERTURE END LIST*
D10*
X5035618Y-13770000D02*
G75*
G03*
X4835000Y-13949752I-5434J-195765D01*
G01*
X8725000Y-12315000D02*
X9875000Y-12315000D01*
X6705000Y-12315000D02*
X8035000Y-12315000D01*
X4845000Y-12525000D02*
X4295000Y-12525000D01*
X4835000Y-14060000D02*
X4835000Y-13949752D01*
X9875000Y-16815000D02*
X10765000Y-16555000D01*
X5185495Y-15030000D02*
G75*
G03*
X5385000Y-14850000I8168J191509D01*
G01*
X3635000Y-14110000D02*
G75*
G03*
X3435000Y-14290000I-9528J-190525D01*
G01*
X4845000Y-12315000D02*
X6205000Y-12315000D01*
X8725000Y-12315000D02*
X8725000Y-12435000D01*
X4780000Y-14110000D02*
G75*
G03*
X4835000Y-14060000I1747J53328D01*
G01*
X4845000Y-16915000D02*
X4845000Y-16615000D01*
X4295000Y-12525000D02*
X3025000Y-13075000D01*
X9875000Y-12315000D02*
X9875000Y-12365000D01*
X8035000Y-12315000D02*
X8035000Y-12435000D01*
X9875000Y-16915000D02*
X9875000Y-16815000D01*
X3435000Y-14830495D02*
G75*
G03*
X3614451Y-15030000I190881J-8766D01*
G01*
X8035000Y-12435000D02*
X8725000Y-12435000D01*
X6205000Y-12535000D02*
X6705000Y-12535000D01*
X3635000Y-14110000D02*
X4780000Y-14110000D01*
X4845000Y-16615000D02*
X4295000Y-16615000D01*
X3435000Y-14830494D02*
X3435000Y-14290000D01*
X10765000Y-12575000D02*
X10765000Y-16555000D01*
X9875000Y-16915000D02*
X4845000Y-16915000D01*
X6705000Y-12315000D02*
X6705000Y-12535000D01*
X4295000Y-16615000D02*
X3025000Y-16075000D01*
X5385000Y-14850000D02*
X5385000Y-13970618D01*
X10245000Y-16065000D02*
G75*
G03*
X10245000Y-16065000I-200000J0D01*
G01*
X5385000Y-13970618D02*
G75*
G03*
X5205248Y-13770000I-196322J4935D01*
G01*
X3025000Y-16075000D02*
X3025000Y-13075000D01*
X5300000Y-13185000D02*
G75*
G03*
X5300000Y-13185000I-200000J0D01*
G01*
X6205000Y-12315000D02*
X6205000Y-12535000D01*
X4845000Y-12315000D02*
X4845000Y-12525000D01*
X9875000Y-12365000D02*
X10765000Y-12575000D01*
X5035619Y-13770000D02*
X5205248Y-13770000D01*
X5185494Y-15030000D02*
X3614451Y-15030000D01*
D11*
D12*
X7078900Y-15348500D02*
X7111900Y-15381500D01*
X7111900Y-15348500D02*
X7078900Y-15381500D01*
X7079500Y-15538500D02*
X7112500Y-15571500D01*
X7112500Y-15538500D02*
X7079500Y-15571500D01*
X7092500Y-15246500D02*
X7125500Y-15279500D01*
X7125500Y-15246500D02*
X7092500Y-15279500D01*
X7536100Y-15540500D02*
X7569100Y-15573500D01*
X7569100Y-15540500D02*
X7536100Y-15573500D01*
X7536500Y-15354500D02*
X7569500Y-15387500D01*
X7569500Y-15354500D02*
X7536500Y-15387500D01*
X7905500Y-15275500D02*
X7938500Y-15308500D01*
X7938500Y-15275500D02*
X7905500Y-15308500D01*
X7988500Y-15433500D02*
X8021500Y-15466500D01*
X8021500Y-15433500D02*
X7988500Y-15466500D01*
X7988500Y-15543500D02*
X8021500Y-15576500D01*
X8021500Y-15543500D02*
X7988500Y-15576500D01*
X7991500Y-15346500D02*
X8024500Y-15379500D01*
X8024500Y-15346500D02*
X7991500Y-15379500D01*
X8381500Y-15549500D02*
X8414500Y-15582500D01*
X8414500Y-15549500D02*
X8381500Y-15582500D01*
X8418500Y-15446500D02*
X8451500Y-15479500D01*
X8451500Y-15446500D02*
X8418500Y-15479500D01*
X8425500Y-15310500D02*
X8458500Y-15343500D01*
X8458500Y-15310500D02*
X8425500Y-15343500D01*
X10253900Y-14979500D02*
X10286900Y-15012500D01*
X10286900Y-14979500D02*
X10253900Y-15012500D01*
D13*
X5568000Y-16712000D02*
G75*
G03*
X5568000Y-16712000I-20000J0D01*
G01*
X6023000Y-13501000D02*
G75*
G03*
X6023000Y-13501000I-20000J0D01*
G01*
X6623000Y-15555000D02*
G75*
G03*
X6623000Y-15555000I-20000J0D01*
G01*
X6719000Y-15250000D02*
G75*
G03*
X6719000Y-15250000I-20000J0D01*
G01*
X6912200Y-13675200D02*
G75*
G03*
X6912200Y-13675200I-20000J0D01*
G01*
X6965000Y-15681000D02*
G75*
G03*
X6965000Y-15681000I-20000J0D01*
G01*
X7064600Y-12735400D02*
G75*
G03*
X7064600Y-12735400I-20000J0D01*
G01*
X7166200Y-12811600D02*
G75*
G03*
X7166200Y-12811600I-20000J0D01*
G01*
X7674000Y-16593000D02*
G75*
G03*
X7674000Y-16593000I-20000J0D01*
G01*
X8860000Y-13265000D02*
G75*
G03*
X8860000Y-13265000I-20000J0D01*
G01*
X9062000Y-14113000D02*
G75*
G03*
X9062000Y-14113000I-20000J0D01*
G01*
X9332000Y-14373500D02*
G75*
G03*
X9332000Y-14373500I-20000J0D01*
G01*
X9531000Y-13384000D02*
G75*
G03*
X9531000Y-13384000I-20000J0D01*
G01*
X9531000Y-13627000D02*
G75*
G03*
X9531000Y-13627000I-20000J0D01*
G01*
X9531000Y-13875000D02*
G75*
G03*
X9531000Y-13875000I-20000J0D01*
G01*
X9635000Y-12883000D02*
G75*
G03*
X9635000Y-12883000I-20000J0D01*
G01*
X9716000Y-12809000D02*
G75*
G03*
X9716000Y-12809000I-20000J0D01*
G01*
X9789000Y-13384000D02*
G75*
G03*
X9789000Y-13384000I-20000J0D01*
G01*
X9789000Y-13627000D02*
G75*
G03*
X9789000Y-13627000I-20000J0D01*
G01*
X9789000Y-13875000D02*
G75*
G03*
X9789000Y-13875000I-20000J0D01*
G01*
X9917000Y-14755000D02*
G75*
G03*
X9917000Y-14755000I-20000J0D01*
G01*
X9964000Y-14664000D02*
G75*
G03*
X9964000Y-14664000I-20000J0D01*
G01*
X10037000Y-14581000D02*
G75*
G03*
X10037000Y-14581000I-20000J0D01*
G01*
X10039000Y-12869504D02*
G75*
G03*
X10039000Y-12869504I-20000J0D01*
G01*
X10044000Y-13384000D02*
G75*
G03*
X10044000Y-13384000I-20000J0D01*
G01*
X10044000Y-13617000D02*
G75*
G03*
X10044000Y-13617000I-20000J0D01*
G01*
X10044000Y-13875000D02*
G75*
G03*
X10044000Y-13875000I-20000J0D01*
G01*
X10119000Y-14497000D02*
G75*
G03*
X10119000Y-14497000I-20000J0D01*
G01*
X10187000Y-14423000D02*
G75*
G03*
X10187000Y-14423000I-20000J0D01*
G01*
X10532000Y-13893500D02*
G75*
G03*
X10532000Y-13893500I-20000J0D01*
G01*
X10537000Y-13643500D02*
G75*
G03*
X10537000Y-13643500I-20000J0D01*
G01*
X10542000Y-13506000D02*
G75*
G03*
X10542000Y-13506000I-20000J0D01*
G01*
X10565000Y-16511000D02*
G75*
G03*
X10565000Y-16511000I-20000J0D01*
G01*
D14*
X6973000Y-15090000D02*
X6973000Y-15160000D01*
X6938000Y-15125000D02*
X7008000Y-15125000D01*
X7062000Y-14020000D02*
X7062000Y-14090000D01*
X7027000Y-14055000D02*
X7097000Y-14055000D01*
X7151000Y-15090000D02*
X7151000Y-15160000D01*
X7116000Y-15125000D02*
X7186000Y-15125000D01*
X7240000Y-14020000D02*
X7240000Y-14090000D01*
X7205000Y-14055000D02*
X7275000Y-14055000D01*
X7329000Y-15090000D02*
X7329000Y-15160000D01*
X7294000Y-15125000D02*
X7364000Y-15125000D01*
X7418000Y-14020000D02*
X7418000Y-14090000D01*
X7383000Y-14055000D02*
X7453000Y-14055000D01*
X7507000Y-15090000D02*
X7507000Y-15160000D01*
X7472000Y-15125000D02*
X7542000Y-15125000D01*
X7596000Y-14020000D02*
X7596000Y-14090000D01*
X7561000Y-14055000D02*
X7631000Y-14055000D01*
X7685000Y-15090000D02*
X7685000Y-15160000D01*
X7650000Y-15125000D02*
X7720000Y-15125000D01*
X7774000Y-14020000D02*
X7774000Y-14090000D01*
X7739000Y-14055000D02*
X7809000Y-14055000D01*
X7863000Y-15090000D02*
X7863000Y-15160000D01*
X7828000Y-15125000D02*
X7898000Y-15125000D01*
X7952000Y-14020000D02*
X7952000Y-14090000D01*
X7917000Y-14055000D02*
X7987000Y-14055000D01*
X8041000Y-15090000D02*
X8041000Y-15160000D01*
X8006000Y-15125000D02*
X8076000Y-15125000D01*
X8130000Y-14020000D02*
X8130000Y-14090000D01*
X8095000Y-14055000D02*
X8165000Y-14055000D01*
X8219000Y-15090000D02*
X8219000Y-15160000D01*
X8184000Y-15125000D02*
X8254000Y-15125000D01*
X8308000Y-14020000D02*
X8308000Y-14090000D01*
X8273000Y-14055000D02*
X8343000Y-14055000D01*
D15*
X7775517Y-12910517D02*
X7775517Y-12857483D01*
X7722483Y-12857483D01*
X7722483Y-12910517D01*
X7775517Y-12910517D01*
X7975517Y-12910517D02*
X7975517Y-12857483D01*
X7922483Y-12857483D01*
X7922483Y-12910517D01*
X7975517Y-12910517D01*
X8175517Y-12910517D02*
X8175517Y-12857483D01*
X8122483Y-12857483D01*
X8122483Y-12910517D01*
X8175517Y-12910517D01*
X8375517Y-12910517D02*
X8375517Y-12857483D01*
X8322483Y-12857483D01*
X8322483Y-12910517D01*
X8375517Y-12910517D01*
X8575517Y-12910517D02*
X8575517Y-12857483D01*
X8522483Y-12857483D01*
X8522483Y-12910517D01*
X8575517Y-12910517D01*
D16*
X9493158Y-15394491D02*
X9533158Y-15354491D01*
X9493158Y-15314491D01*
X9453158Y-15354491D01*
X9493158Y-15394491D01*
X9981158Y-15394491D02*
X10021158Y-15354491D01*
X9981158Y-15314491D01*
X9941158Y-15354491D01*
X9981158Y-15394491D01*
D17*
X4072500Y-13874500D02*
X4172500Y-13974500D01*
X4172500Y-13874500D02*
X4072500Y-13974500D01*
X4172500Y-13924500D02*
G75*
G03*
X4172500Y-13924500I-50000J0D01*
G01*
X4205000Y-15755000D02*
X4305000Y-15855000D01*
X4305000Y-15755000D02*
X4205000Y-15855000D01*
X4305000Y-15805000D02*
G75*
G03*
X4305000Y-15805000I-50000J0D01*
G01*
X4326500Y-13874500D02*
X4426500Y-13974500D01*
X4426500Y-13874500D02*
X4326500Y-13974500D01*
X4426500Y-13924500D02*
G75*
G03*
X4426500Y-13924500I-50000J0D01*
G01*
X4459000Y-15755000D02*
X4559000Y-15855000D01*
X4559000Y-15755000D02*
X4459000Y-15855000D01*
X4559000Y-15805000D02*
G75*
G03*
X4559000Y-15805000I-50000J0D01*
G01*
X4580500Y-13874500D02*
X4680500Y-13974500D01*
X4680500Y-13874500D02*
X4580500Y-13974500D01*
X4680500Y-13924500D02*
G75*
G03*
X4680500Y-13924500I-50000J0D01*
G01*
D18*
X3325383Y-15828009D02*
X3445383Y-15948009D01*
X3445383Y-15828009D02*
X3325383Y-15948009D01*
X3385383Y-15828009D02*
X3385383Y-15948009D01*
X3325383Y-15888009D02*
X3445383Y-15888009D01*
X3326919Y-13204122D02*
X3446919Y-13324122D01*
X3446919Y-13204122D02*
X3326919Y-13324122D01*
X3386919Y-13204122D02*
X3386919Y-13324122D01*
X3326919Y-13264122D02*
X3446919Y-13264122D01*
X3791000Y-12997500D02*
X3911000Y-13117500D01*
X3911000Y-12997500D02*
X3791000Y-13117500D01*
X3851000Y-12997500D02*
X3851000Y-13117500D01*
X3791000Y-13057500D02*
X3911000Y-13057500D01*
X3793000Y-16026500D02*
X3913000Y-16146500D01*
X3913000Y-16026500D02*
X3793000Y-16146500D01*
X3853000Y-16026500D02*
X3853000Y-16146500D01*
X3793000Y-16086500D02*
X3913000Y-16086500D01*
X4255081Y-12790878D02*
X4375081Y-12910878D01*
X4375081Y-12790878D02*
X4255081Y-12910878D01*
X4315081Y-12790878D02*
X4315081Y-12910878D01*
X4255081Y-12850878D02*
X4375081Y-12850878D01*
X4260617Y-16224991D02*
X4380617Y-16344991D01*
X4380617Y-16224991D02*
X4260617Y-16344991D01*
X4320617Y-16224991D02*
X4320617Y-16344991D01*
X4260617Y-16284991D02*
X4380617Y-16284991D01*
X5160000Y-15355000D02*
X5280000Y-15475000D01*
X5280000Y-15355000D02*
X5160000Y-15475000D01*
X5220000Y-15355000D02*
X5220000Y-15475000D01*
X5160000Y-15415000D02*
X5280000Y-15415000D01*
X5160000Y-15863000D02*
X5280000Y-15983000D01*
X5280000Y-15863000D02*
X5160000Y-15983000D01*
X5220000Y-15863000D02*
X5220000Y-15983000D01*
X5160000Y-15923000D02*
X5280000Y-15923000D01*
X5160000Y-16371000D02*
X5280000Y-16491000D01*
X5280000Y-16371000D02*
X5160000Y-16491000D01*
X5220000Y-16371000D02*
X5220000Y-16491000D01*
X5160000Y-16431000D02*
X5280000Y-16431000D01*
X6215000Y-13818500D02*
X6335000Y-13938500D01*
X6335000Y-13818500D02*
X6215000Y-13938500D01*
X6275000Y-13818500D02*
X6275000Y-13938500D01*
X6215000Y-13878500D02*
X6335000Y-13878500D01*
X6215000Y-14326500D02*
X6335000Y-14446500D01*
X6335000Y-14326500D02*
X6215000Y-14446500D01*
X6275000Y-14326500D02*
X6275000Y-14446500D01*
X6215000Y-14386500D02*
X6335000Y-14386500D01*
X6215000Y-14834500D02*
X6335000Y-14954500D01*
X6335000Y-14834500D02*
X6215000Y-14954500D01*
X6275000Y-14834500D02*
X6275000Y-14954500D01*
X6215000Y-14894500D02*
X6335000Y-14894500D01*
X6337000Y-16230000D02*
X6457000Y-16350000D01*
X6457000Y-16230000D02*
X6337000Y-16350000D01*
X6397000Y-16230000D02*
X6397000Y-16350000D01*
X6337000Y-16290000D02*
X6457000Y-16290000D01*
X6845000Y-16230000D02*
X6965000Y-16350000D01*
X6965000Y-16230000D02*
X6845000Y-16350000D01*
X6905000Y-16230000D02*
X6905000Y-16350000D01*
X6845000Y-16290000D02*
X6965000Y-16290000D01*
X7353000Y-16230000D02*
X7473000Y-16350000D01*
X7473000Y-16230000D02*
X7353000Y-16350000D01*
X7413000Y-16230000D02*
X7413000Y-16350000D01*
X7353000Y-16290000D02*
X7473000Y-16290000D01*
X8109000Y-16230000D02*
X8229000Y-16350000D01*
X8229000Y-16230000D02*
X8109000Y-16350000D01*
X8169000Y-16230000D02*
X8169000Y-16350000D01*
X8109000Y-16290000D02*
X8229000Y-16290000D01*
X8617000Y-16230000D02*
X8737000Y-16350000D01*
X8737000Y-16230000D02*
X8617000Y-16350000D01*
X8677000Y-16230000D02*
X8677000Y-16350000D01*
X8617000Y-16290000D02*
X8737000Y-16290000D01*
X9125000Y-16230000D02*
X9245000Y-16350000D01*
X9245000Y-16230000D02*
X9125000Y-16350000D01*
X9185000Y-16230000D02*
X9185000Y-16350000D01*
X9125000Y-16290000D02*
X9245000Y-16290000D01*
D11*
X3277619Y-17230476D02*
X3277619Y-17030476D01*
X3325238Y-17030476D01*
X3353809Y-17040000D01*
X3372857Y-17059048D01*
X3382381Y-17078095D01*
X3391905Y-17116190D01*
X3391905Y-17144762D01*
X3382381Y-17182857D01*
X3372857Y-17201905D01*
X3353809Y-17220952D01*
X3325238Y-17230476D01*
X3277619Y-17230476D01*
X3477619Y-17230476D02*
X3477619Y-17097143D01*
X3477619Y-17135238D02*
X3487143Y-17116190D01*
X3496667Y-17106667D01*
X3515714Y-17097143D01*
X3534762Y-17097143D01*
X3601428Y-17230476D02*
X3601428Y-17097143D01*
X3601428Y-17030476D02*
X3591905Y-17040000D01*
X3601428Y-17049524D01*
X3610952Y-17040000D01*
X3601428Y-17030476D01*
X3601428Y-17049524D01*
X3725238Y-17230476D02*
X3706190Y-17220952D01*
X3696667Y-17201905D01*
X3696667Y-17030476D01*
X3830000Y-17230476D02*
X3810952Y-17220952D01*
X3801428Y-17201905D01*
X3801428Y-17030476D01*
X4058571Y-17230476D02*
X4058571Y-17030476D01*
X4125238Y-17173333D01*
X4191905Y-17030476D01*
X4191905Y-17230476D01*
X4372857Y-17230476D02*
X4372857Y-17125714D01*
X4363333Y-17106667D01*
X4344286Y-17097143D01*
X4306190Y-17097143D01*
X4287143Y-17106667D01*
X4372857Y-17220952D02*
X4353810Y-17230476D01*
X4306190Y-17230476D01*
X4287143Y-17220952D01*
X4277619Y-17201905D01*
X4277619Y-17182857D01*
X4287143Y-17163810D01*
X4306190Y-17154286D01*
X4353810Y-17154286D01*
X4372857Y-17144762D01*
X4468095Y-17097143D02*
X4468095Y-17297143D01*
X4468095Y-17106667D02*
X4487143Y-17097143D01*
X4525238Y-17097143D01*
X4544286Y-17106667D01*
X4553810Y-17116190D01*
X4563333Y-17135238D01*
X4563333Y-17192381D01*
X4553810Y-17211429D01*
X4544286Y-17220952D01*
X4525238Y-17230476D01*
X4487143Y-17230476D01*
X4468095Y-17220952D01*
X4649048Y-17211429D02*
X4658571Y-17220952D01*
X4649048Y-17230476D01*
X4639524Y-17220952D01*
X4649048Y-17211429D01*
X4649048Y-17230476D01*
X4649048Y-17106667D02*
X4658571Y-17116190D01*
X4649048Y-17125714D01*
X4639524Y-17116190D01*
X4649048Y-17106667D01*
X4649048Y-17125714D01*
D12*
X2987000Y-17543500D02*
X3020000Y-17576500D01*
X3020000Y-17543500D02*
X2987000Y-17576500D01*
D11*
X3315714Y-17450476D02*
X3334762Y-17450476D01*
X3353809Y-17460000D01*
X3363333Y-17469524D01*
X3372857Y-17488571D01*
X3382381Y-17526667D01*
X3382381Y-17574286D01*
X3372857Y-17612381D01*
X3363333Y-17631429D01*
X3353809Y-17640952D01*
X3334762Y-17650476D01*
X3315714Y-17650476D01*
X3296667Y-17640952D01*
X3287143Y-17631429D01*
X3277619Y-17612381D01*
X3268095Y-17574286D01*
X3268095Y-17526667D01*
X3277619Y-17488571D01*
X3287143Y-17469524D01*
X3296667Y-17460000D01*
X3315714Y-17450476D01*
X3468095Y-17631429D02*
X3477619Y-17640952D01*
X3468095Y-17650476D01*
X3458571Y-17640952D01*
X3468095Y-17631429D01*
X3468095Y-17650476D01*
X3544286Y-17450476D02*
X3668095Y-17450476D01*
X3601428Y-17526667D01*
X3630000Y-17526667D01*
X3649048Y-17536190D01*
X3658571Y-17545714D01*
X3668095Y-17564762D01*
X3668095Y-17612381D01*
X3658571Y-17631429D01*
X3649048Y-17640952D01*
X3630000Y-17650476D01*
X3572857Y-17650476D01*
X3553809Y-17640952D01*
X3544286Y-17631429D01*
X3734762Y-17450476D02*
X3858571Y-17450476D01*
X3791905Y-17526667D01*
X3820476Y-17526667D01*
X3839524Y-17536190D01*
X3849048Y-17545714D01*
X3858571Y-17564762D01*
X3858571Y-17612381D01*
X3849048Y-17631429D01*
X3839524Y-17640952D01*
X3820476Y-17650476D01*
X3763333Y-17650476D01*
X3744286Y-17640952D01*
X3734762Y-17631429D01*
X3982381Y-17450476D02*
X4001428Y-17450476D01*
X4020476Y-17460000D01*
X4030000Y-17469524D01*
X4039524Y-17488571D01*
X4049048Y-17526667D01*
X4049048Y-17574286D01*
X4039524Y-17612381D01*
X4030000Y-17631429D01*
X4020476Y-17640952D01*
X4001428Y-17650476D01*
X3982381Y-17650476D01*
X3963333Y-17640952D01*
X3953809Y-17631429D01*
X3944286Y-17612381D01*
X3934762Y-17574286D01*
X3934762Y-17526667D01*
X3944286Y-17488571D01*
X3953809Y-17469524D01*
X3963333Y-17460000D01*
X3982381Y-17450476D01*
X4134762Y-17650476D02*
X4134762Y-17517143D01*
X4134762Y-17536190D02*
X4144286Y-17526667D01*
X4163333Y-17517143D01*
X4191905Y-17517143D01*
X4210952Y-17526667D01*
X4220476Y-17545714D01*
X4220476Y-17650476D01*
X4220476Y-17545714D02*
X4230000Y-17526667D01*
X4249048Y-17517143D01*
X4277619Y-17517143D01*
X4296667Y-17526667D01*
X4306190Y-17545714D01*
X4306190Y-17650476D01*
X4401429Y-17650476D02*
X4401429Y-17517143D01*
X4401429Y-17536190D02*
X4410952Y-17526667D01*
X4430000Y-17517143D01*
X4458571Y-17517143D01*
X4477619Y-17526667D01*
X4487143Y-17545714D01*
X4487143Y-17650476D01*
X4487143Y-17545714D02*
X4496667Y-17526667D01*
X4515714Y-17517143D01*
X4544286Y-17517143D01*
X4563333Y-17526667D01*
X4572857Y-17545714D01*
X4572857Y-17650476D01*
X4963333Y-17440952D02*
X4791905Y-17698095D01*
X5220476Y-17450476D02*
X5239524Y-17450476D01*
X5258571Y-17460000D01*
X5268095Y-17469524D01*
X5277619Y-17488571D01*
X5287143Y-17526667D01*
X5287143Y-17574286D01*
X5277619Y-17612381D01*
X5268095Y-17631429D01*
X5258571Y-17640952D01*
X5239524Y-17650476D01*
X5220476Y-17650476D01*
X5201429Y-17640952D01*
X5191905Y-17631429D01*
X5182381Y-17612381D01*
X5172857Y-17574286D01*
X5172857Y-17526667D01*
X5182381Y-17488571D01*
X5191905Y-17469524D01*
X5201429Y-17460000D01*
X5220476Y-17450476D01*
X5372857Y-17631429D02*
X5382381Y-17640952D01*
X5372857Y-17650476D01*
X5363333Y-17640952D01*
X5372857Y-17631429D01*
X5372857Y-17650476D01*
X5506190Y-17450476D02*
X5525238Y-17450476D01*
X5544286Y-17460000D01*
X5553810Y-17469524D01*
X5563333Y-17488571D01*
X5572857Y-17526667D01*
X5572857Y-17574286D01*
X5563333Y-17612381D01*
X5553810Y-17631429D01*
X5544286Y-17640952D01*
X5525238Y-17650476D01*
X5506190Y-17650476D01*
X5487143Y-17640952D01*
X5477619Y-17631429D01*
X5468095Y-17612381D01*
X5458571Y-17574286D01*
X5458571Y-17526667D01*
X5468095Y-17488571D01*
X5477619Y-17469524D01*
X5487143Y-17460000D01*
X5506190Y-17450476D01*
X5763333Y-17650476D02*
X5649048Y-17650476D01*
X5706190Y-17650476D02*
X5706190Y-17450476D01*
X5687143Y-17479048D01*
X5668095Y-17498095D01*
X5649048Y-17507619D01*
X5830000Y-17450476D02*
X5953809Y-17450476D01*
X5887143Y-17526667D01*
X5915714Y-17526667D01*
X5934762Y-17536190D01*
X5944286Y-17545714D01*
X5953809Y-17564762D01*
X5953809Y-17612381D01*
X5944286Y-17631429D01*
X5934762Y-17640952D01*
X5915714Y-17650476D01*
X5858571Y-17650476D01*
X5839524Y-17640952D01*
X5830000Y-17631429D01*
X6077619Y-17450476D02*
X6096667Y-17450476D01*
X6115714Y-17460000D01*
X6125238Y-17469524D01*
X6134762Y-17488571D01*
X6144286Y-17526667D01*
X6144286Y-17574286D01*
X6134762Y-17612381D01*
X6125238Y-17631429D01*
X6115714Y-17640952D01*
X6096667Y-17650476D01*
X6077619Y-17650476D01*
X6058571Y-17640952D01*
X6049048Y-17631429D01*
X6039524Y-17612381D01*
X6030000Y-17574286D01*
X6030000Y-17526667D01*
X6039524Y-17488571D01*
X6049048Y-17469524D01*
X6058571Y-17460000D01*
X6077619Y-17450476D01*
X6220476Y-17450476D02*
X6220476Y-17488571D01*
X6296667Y-17450476D02*
X6296667Y-17488571D01*
X6591905Y-17726667D02*
X6582381Y-17717143D01*
X6563333Y-17688571D01*
X6553809Y-17669524D01*
X6544286Y-17640952D01*
X6534762Y-17593333D01*
X6534762Y-17555238D01*
X6544286Y-17507619D01*
X6553809Y-17479048D01*
X6563333Y-17460000D01*
X6582381Y-17431429D01*
X6591905Y-17421905D01*
X6772857Y-17650476D02*
X6658571Y-17650476D01*
X6715714Y-17650476D02*
X6715714Y-17450476D01*
X6696667Y-17479048D01*
X6677619Y-17498095D01*
X6658571Y-17507619D01*
X6839524Y-17450476D02*
X6963333Y-17450476D01*
X6896667Y-17526667D01*
X6925238Y-17526667D01*
X6944286Y-17536190D01*
X6953809Y-17545714D01*
X6963333Y-17564762D01*
X6963333Y-17612381D01*
X6953809Y-17631429D01*
X6944286Y-17640952D01*
X6925238Y-17650476D01*
X6868095Y-17650476D01*
X6849048Y-17640952D01*
X6839524Y-17631429D01*
X7201428Y-17650476D02*
X7201428Y-17450476D01*
X7287143Y-17650476D02*
X7287143Y-17545714D01*
X7277619Y-17526667D01*
X7258571Y-17517143D01*
X7230000Y-17517143D01*
X7210952Y-17526667D01*
X7201428Y-17536190D01*
X7410952Y-17650476D02*
X7391905Y-17640952D01*
X7382381Y-17631429D01*
X7372857Y-17612381D01*
X7372857Y-17555238D01*
X7382381Y-17536190D01*
X7391905Y-17526667D01*
X7410952Y-17517143D01*
X7439524Y-17517143D01*
X7458571Y-17526667D01*
X7468095Y-17536190D01*
X7477619Y-17555238D01*
X7477619Y-17612381D01*
X7468095Y-17631429D01*
X7458571Y-17640952D01*
X7439524Y-17650476D01*
X7410952Y-17650476D01*
X7591905Y-17650476D02*
X7572857Y-17640952D01*
X7563333Y-17621905D01*
X7563333Y-17450476D01*
X7744286Y-17640952D02*
X7725238Y-17650476D01*
X7687143Y-17650476D01*
X7668095Y-17640952D01*
X7658571Y-17621905D01*
X7658571Y-17545714D01*
X7668095Y-17526667D01*
X7687143Y-17517143D01*
X7725238Y-17517143D01*
X7744286Y-17526667D01*
X7753809Y-17545714D01*
X7753809Y-17564762D01*
X7658571Y-17583810D01*
X7830000Y-17640952D02*
X7849048Y-17650476D01*
X7887143Y-17650476D01*
X7906190Y-17640952D01*
X7915714Y-17621905D01*
X7915714Y-17612381D01*
X7906190Y-17593333D01*
X7887143Y-17583810D01*
X7858571Y-17583810D01*
X7839524Y-17574286D01*
X7830000Y-17555238D01*
X7830000Y-17545714D01*
X7839524Y-17526667D01*
X7858571Y-17517143D01*
X7887143Y-17517143D01*
X7906190Y-17526667D01*
X7982381Y-17726667D02*
X7991905Y-17717143D01*
X8010952Y-17688571D01*
X8020476Y-17669524D01*
X8030000Y-17640952D01*
X8039524Y-17593333D01*
X8039524Y-17555238D01*
X8030000Y-17507619D01*
X8020476Y-17479048D01*
X8010952Y-17460000D01*
X7991905Y-17431429D01*
X7982381Y-17421905D01*
D13*
X3020000Y-17824000D02*
G75*
G03*
X3020000Y-17824000I-20000J0D01*
G01*
D11*
X3315714Y-17714476D02*
X3334762Y-17714476D01*
X3353809Y-17724000D01*
X3363333Y-17733524D01*
X3372857Y-17752571D01*
X3382381Y-17790667D01*
X3382381Y-17838286D01*
X3372857Y-17876381D01*
X3363333Y-17895429D01*
X3353809Y-17904952D01*
X3334762Y-17914476D01*
X3315714Y-17914476D01*
X3296667Y-17904952D01*
X3287143Y-17895429D01*
X3277619Y-17876381D01*
X3268095Y-17838286D01*
X3268095Y-17790667D01*
X3277619Y-17752571D01*
X3287143Y-17733524D01*
X3296667Y-17724000D01*
X3315714Y-17714476D01*
X3468095Y-17895429D02*
X3477619Y-17904952D01*
X3468095Y-17914476D01*
X3458571Y-17904952D01*
X3468095Y-17895429D01*
X3468095Y-17914476D01*
X3649048Y-17781143D02*
X3649048Y-17914476D01*
X3601428Y-17704952D02*
X3553809Y-17847810D01*
X3677619Y-17847810D01*
X3791905Y-17714476D02*
X3810952Y-17714476D01*
X3830000Y-17724000D01*
X3839524Y-17733524D01*
X3849048Y-17752571D01*
X3858571Y-17790667D01*
X3858571Y-17838286D01*
X3849048Y-17876381D01*
X3839524Y-17895429D01*
X3830000Y-17904952D01*
X3810952Y-17914476D01*
X3791905Y-17914476D01*
X3772857Y-17904952D01*
X3763333Y-17895429D01*
X3753809Y-17876381D01*
X3744286Y-17838286D01*
X3744286Y-17790667D01*
X3753809Y-17752571D01*
X3763333Y-17733524D01*
X3772857Y-17724000D01*
X3791905Y-17714476D01*
X3982381Y-17714476D02*
X4001428Y-17714476D01*
X4020476Y-17724000D01*
X4030000Y-17733524D01*
X4039524Y-17752571D01*
X4049048Y-17790667D01*
X4049048Y-17838286D01*
X4039524Y-17876381D01*
X4030000Y-17895429D01*
X4020476Y-17904952D01*
X4001428Y-17914476D01*
X3982381Y-17914476D01*
X3963333Y-17904952D01*
X3953809Y-17895429D01*
X3944286Y-17876381D01*
X3934762Y-17838286D01*
X3934762Y-17790667D01*
X3944286Y-17752571D01*
X3953809Y-17733524D01*
X3963333Y-17724000D01*
X3982381Y-17714476D01*
X4134762Y-17914476D02*
X4134762Y-17781143D01*
X4134762Y-17800190D02*
X4144286Y-17790667D01*
X4163333Y-17781143D01*
X4191905Y-17781143D01*
X4210952Y-17790667D01*
X4220476Y-17809714D01*
X4220476Y-17914476D01*
X4220476Y-17809714D02*
X4230000Y-17790667D01*
X4249048Y-17781143D01*
X4277619Y-17781143D01*
X4296667Y-17790667D01*
X4306190Y-17809714D01*
X4306190Y-17914476D01*
X4401429Y-17914476D02*
X4401429Y-17781143D01*
X4401429Y-17800190D02*
X4410952Y-17790667D01*
X4430000Y-17781143D01*
X4458571Y-17781143D01*
X4477619Y-17790667D01*
X4487143Y-17809714D01*
X4487143Y-17914476D01*
X4487143Y-17809714D02*
X4496667Y-17790667D01*
X4515714Y-17781143D01*
X4544286Y-17781143D01*
X4563333Y-17790667D01*
X4572857Y-17809714D01*
X4572857Y-17914476D01*
X4963333Y-17704952D02*
X4791905Y-17962095D01*
X5220476Y-17714476D02*
X5239524Y-17714476D01*
X5258571Y-17724000D01*
X5268095Y-17733524D01*
X5277619Y-17752571D01*
X5287143Y-17790667D01*
X5287143Y-17838286D01*
X5277619Y-17876381D01*
X5268095Y-17895429D01*
X5258571Y-17904952D01*
X5239524Y-17914476D01*
X5220476Y-17914476D01*
X5201429Y-17904952D01*
X5191905Y-17895429D01*
X5182381Y-17876381D01*
X5172857Y-17838286D01*
X5172857Y-17790667D01*
X5182381Y-17752571D01*
X5191905Y-17733524D01*
X5201429Y-17724000D01*
X5220476Y-17714476D01*
X5372857Y-17895429D02*
X5382381Y-17904952D01*
X5372857Y-17914476D01*
X5363333Y-17904952D01*
X5372857Y-17895429D01*
X5372857Y-17914476D01*
X5506190Y-17714476D02*
X5525238Y-17714476D01*
X5544286Y-17724000D01*
X5553810Y-17733524D01*
X5563333Y-17752571D01*
X5572857Y-17790667D01*
X5572857Y-17838286D01*
X5563333Y-17876381D01*
X5553810Y-17895429D01*
X5544286Y-17904952D01*
X5525238Y-17914476D01*
X5506190Y-17914476D01*
X5487143Y-17904952D01*
X5477619Y-17895429D01*
X5468095Y-17876381D01*
X5458571Y-17838286D01*
X5458571Y-17790667D01*
X5468095Y-17752571D01*
X5477619Y-17733524D01*
X5487143Y-17724000D01*
X5506190Y-17714476D01*
X5763333Y-17914476D02*
X5649048Y-17914476D01*
X5706190Y-17914476D02*
X5706190Y-17714476D01*
X5687143Y-17743048D01*
X5668095Y-17762095D01*
X5649048Y-17771619D01*
X5944286Y-17714476D02*
X5849048Y-17714476D01*
X5839524Y-17809714D01*
X5849048Y-17800190D01*
X5868095Y-17790667D01*
X5915714Y-17790667D01*
X5934762Y-17800190D01*
X5944286Y-17809714D01*
X5953809Y-17828762D01*
X5953809Y-17876381D01*
X5944286Y-17895429D01*
X5934762Y-17904952D01*
X5915714Y-17914476D01*
X5868095Y-17914476D01*
X5849048Y-17904952D01*
X5839524Y-17895429D01*
X6020476Y-17714476D02*
X6153809Y-17714476D01*
X6068095Y-17914476D01*
X6220476Y-17714476D02*
X6220476Y-17752571D01*
X6296667Y-17714476D02*
X6296667Y-17752571D01*
X6591905Y-17990667D02*
X6582381Y-17981143D01*
X6563333Y-17952571D01*
X6553809Y-17933524D01*
X6544286Y-17904952D01*
X6534762Y-17857333D01*
X6534762Y-17819238D01*
X6544286Y-17771619D01*
X6553809Y-17743048D01*
X6563333Y-17724000D01*
X6582381Y-17695429D01*
X6591905Y-17685905D01*
X6649048Y-17714476D02*
X6772857Y-17714476D01*
X6706190Y-17790667D01*
X6734762Y-17790667D01*
X6753809Y-17800190D01*
X6763333Y-17809714D01*
X6772857Y-17828762D01*
X6772857Y-17876381D01*
X6763333Y-17895429D01*
X6753809Y-17904952D01*
X6734762Y-17914476D01*
X6677619Y-17914476D01*
X6658571Y-17904952D01*
X6649048Y-17895429D01*
X6839524Y-17714476D02*
X6963333Y-17714476D01*
X6896667Y-17790667D01*
X6925238Y-17790667D01*
X6944286Y-17800190D01*
X6953809Y-17809714D01*
X6963333Y-17828762D01*
X6963333Y-17876381D01*
X6953809Y-17895429D01*
X6944286Y-17904952D01*
X6925238Y-17914476D01*
X6868095Y-17914476D01*
X6849048Y-17904952D01*
X6839524Y-17895429D01*
X7201428Y-17914476D02*
X7201428Y-17714476D01*
X7287143Y-17914476D02*
X7287143Y-17809714D01*
X7277619Y-17790667D01*
X7258571Y-17781143D01*
X7230000Y-17781143D01*
X7210952Y-17790667D01*
X7201428Y-17800190D01*
X7410952Y-17914476D02*
X7391905Y-17904952D01*
X7382381Y-17895429D01*
X7372857Y-17876381D01*
X7372857Y-17819238D01*
X7382381Y-17800190D01*
X7391905Y-17790667D01*
X7410952Y-17781143D01*
X7439524Y-17781143D01*
X7458571Y-17790667D01*
X7468095Y-17800190D01*
X7477619Y-17819238D01*
X7477619Y-17876381D01*
X7468095Y-17895429D01*
X7458571Y-17904952D01*
X7439524Y-17914476D01*
X7410952Y-17914476D01*
X7591905Y-17914476D02*
X7572857Y-17904952D01*
X7563333Y-17885905D01*
X7563333Y-17714476D01*
X7744286Y-17904952D02*
X7725238Y-17914476D01*
X7687143Y-17914476D01*
X7668095Y-17904952D01*
X7658571Y-17885905D01*
X7658571Y-17809714D01*
X7668095Y-17790667D01*
X7687143Y-17781143D01*
X7725238Y-17781143D01*
X7744286Y-17790667D01*
X7753809Y-17809714D01*
X7753809Y-17828762D01*
X7658571Y-17847810D01*
X7830000Y-17904952D02*
X7849048Y-17914476D01*
X7887143Y-17914476D01*
X7906190Y-17904952D01*
X7915714Y-17885905D01*
X7915714Y-17876381D01*
X7906190Y-17857333D01*
X7887143Y-17847810D01*
X7858571Y-17847810D01*
X7839524Y-17838286D01*
X7830000Y-17819238D01*
X7830000Y-17809714D01*
X7839524Y-17790667D01*
X7858571Y-17781143D01*
X7887143Y-17781143D01*
X7906190Y-17790667D01*
X7982381Y-17990667D02*
X7991905Y-17981143D01*
X8010952Y-17952571D01*
X8020476Y-17933524D01*
X8030000Y-17904952D01*
X8039524Y-17857333D01*
X8039524Y-17819238D01*
X8030000Y-17771619D01*
X8020476Y-17743048D01*
X8010952Y-17724000D01*
X7991905Y-17695429D01*
X7982381Y-17685905D01*
D14*
X2985000Y-18053000D02*
X2985000Y-18123000D01*
X2950000Y-18088000D02*
X3020000Y-18088000D01*
D11*
X3315714Y-17978476D02*
X3334762Y-17978476D01*
X3353809Y-17988000D01*
X3363333Y-17997524D01*
X3372857Y-18016571D01*
X3382381Y-18054667D01*
X3382381Y-18102286D01*
X3372857Y-18140381D01*
X3363333Y-18159429D01*
X3353809Y-18168952D01*
X3334762Y-18178476D01*
X3315714Y-18178476D01*
X3296667Y-18168952D01*
X3287143Y-18159429D01*
X3277619Y-18140381D01*
X3268095Y-18102286D01*
X3268095Y-18054667D01*
X3277619Y-18016571D01*
X3287143Y-17997524D01*
X3296667Y-17988000D01*
X3315714Y-17978476D01*
X3468095Y-18159429D02*
X3477619Y-18168952D01*
X3468095Y-18178476D01*
X3458571Y-18168952D01*
X3468095Y-18159429D01*
X3468095Y-18178476D01*
X3544286Y-17978476D02*
X3677619Y-17978476D01*
X3591905Y-18178476D01*
X3791905Y-17978476D02*
X3810952Y-17978476D01*
X3830000Y-17988000D01*
X3839524Y-17997524D01*
X3849048Y-18016571D01*
X3858571Y-18054667D01*
X3858571Y-18102286D01*
X3849048Y-18140381D01*
X3839524Y-18159429D01*
X3830000Y-18168952D01*
X3810952Y-18178476D01*
X3791905Y-18178476D01*
X3772857Y-18168952D01*
X3763333Y-18159429D01*
X3753809Y-18140381D01*
X3744286Y-18102286D01*
X3744286Y-18054667D01*
X3753809Y-18016571D01*
X3763333Y-17997524D01*
X3772857Y-17988000D01*
X3791905Y-17978476D01*
X3982381Y-17978476D02*
X4001428Y-17978476D01*
X4020476Y-17988000D01*
X4030000Y-17997524D01*
X4039524Y-18016571D01*
X4049048Y-18054667D01*
X4049048Y-18102286D01*
X4039524Y-18140381D01*
X4030000Y-18159429D01*
X4020476Y-18168952D01*
X4001428Y-18178476D01*
X3982381Y-18178476D01*
X3963333Y-18168952D01*
X3953809Y-18159429D01*
X3944286Y-18140381D01*
X3934762Y-18102286D01*
X3934762Y-18054667D01*
X3944286Y-18016571D01*
X3953809Y-17997524D01*
X3963333Y-17988000D01*
X3982381Y-17978476D01*
X4134762Y-18178476D02*
X4134762Y-18045143D01*
X4134762Y-18064190D02*
X4144286Y-18054667D01*
X4163333Y-18045143D01*
X4191905Y-18045143D01*
X4210952Y-18054667D01*
X4220476Y-18073714D01*
X4220476Y-18178476D01*
X4220476Y-18073714D02*
X4230000Y-18054667D01*
X4249048Y-18045143D01*
X4277619Y-18045143D01*
X4296667Y-18054667D01*
X4306190Y-18073714D01*
X4306190Y-18178476D01*
X4401429Y-18178476D02*
X4401429Y-18045143D01*
X4401429Y-18064190D02*
X4410952Y-18054667D01*
X4430000Y-18045143D01*
X4458571Y-18045143D01*
X4477619Y-18054667D01*
X4487143Y-18073714D01*
X4487143Y-18178476D01*
X4487143Y-18073714D02*
X4496667Y-18054667D01*
X4515714Y-18045143D01*
X4544286Y-18045143D01*
X4563333Y-18054667D01*
X4572857Y-18073714D01*
X4572857Y-18178476D01*
X4963333Y-17968952D02*
X4791905Y-18226095D01*
X5220476Y-17978476D02*
X5239524Y-17978476D01*
X5258571Y-17988000D01*
X5268095Y-17997524D01*
X5277619Y-18016571D01*
X5287143Y-18054667D01*
X5287143Y-18102286D01*
X5277619Y-18140381D01*
X5268095Y-18159429D01*
X5258571Y-18168952D01*
X5239524Y-18178476D01*
X5220476Y-18178476D01*
X5201429Y-18168952D01*
X5191905Y-18159429D01*
X5182381Y-18140381D01*
X5172857Y-18102286D01*
X5172857Y-18054667D01*
X5182381Y-18016571D01*
X5191905Y-17997524D01*
X5201429Y-17988000D01*
X5220476Y-17978476D01*
X5372857Y-18159429D02*
X5382381Y-18168952D01*
X5372857Y-18178476D01*
X5363333Y-18168952D01*
X5372857Y-18159429D01*
X5372857Y-18178476D01*
X5506190Y-17978476D02*
X5525238Y-17978476D01*
X5544286Y-17988000D01*
X5553810Y-17997524D01*
X5563333Y-18016571D01*
X5572857Y-18054667D01*
X5572857Y-18102286D01*
X5563333Y-18140381D01*
X5553810Y-18159429D01*
X5544286Y-18168952D01*
X5525238Y-18178476D01*
X5506190Y-18178476D01*
X5487143Y-18168952D01*
X5477619Y-18159429D01*
X5468095Y-18140381D01*
X5458571Y-18102286D01*
X5458571Y-18054667D01*
X5468095Y-18016571D01*
X5477619Y-17997524D01*
X5487143Y-17988000D01*
X5506190Y-17978476D01*
X5649048Y-17997524D02*
X5658571Y-17988000D01*
X5677619Y-17978476D01*
X5725238Y-17978476D01*
X5744286Y-17988000D01*
X5753809Y-17997524D01*
X5763333Y-18016571D01*
X5763333Y-18035619D01*
X5753809Y-18064190D01*
X5639524Y-18178476D01*
X5763333Y-18178476D01*
X5830000Y-17978476D02*
X5963333Y-17978476D01*
X5877619Y-18178476D01*
X6125238Y-17978476D02*
X6087143Y-17978476D01*
X6068095Y-17988000D01*
X6058571Y-17997524D01*
X6039524Y-18026095D01*
X6030000Y-18064190D01*
X6030000Y-18140381D01*
X6039524Y-18159429D01*
X6049048Y-18168952D01*
X6068095Y-18178476D01*
X6106190Y-18178476D01*
X6125238Y-18168952D01*
X6134762Y-18159429D01*
X6144286Y-18140381D01*
X6144286Y-18092762D01*
X6134762Y-18073714D01*
X6125238Y-18064190D01*
X6106190Y-18054667D01*
X6068095Y-18054667D01*
X6049048Y-18064190D01*
X6039524Y-18073714D01*
X6030000Y-18092762D01*
X6220476Y-17978476D02*
X6220476Y-18016571D01*
X6296667Y-17978476D02*
X6296667Y-18016571D01*
X6591905Y-18254667D02*
X6582381Y-18245143D01*
X6563333Y-18216571D01*
X6553809Y-18197524D01*
X6544286Y-18168952D01*
X6534762Y-18121333D01*
X6534762Y-18083238D01*
X6544286Y-18035619D01*
X6553809Y-18007048D01*
X6563333Y-17988000D01*
X6582381Y-17959429D01*
X6591905Y-17949905D01*
X6772857Y-18178476D02*
X6658571Y-18178476D01*
X6715714Y-18178476D02*
X6715714Y-17978476D01*
X6696667Y-18007048D01*
X6677619Y-18026095D01*
X6658571Y-18035619D01*
X6944286Y-17978476D02*
X6906190Y-17978476D01*
X6887143Y-17988000D01*
X6877619Y-17997524D01*
X6858571Y-18026095D01*
X6849048Y-18064190D01*
X6849048Y-18140381D01*
X6858571Y-18159429D01*
X6868095Y-18168952D01*
X6887143Y-18178476D01*
X6925238Y-18178476D01*
X6944286Y-18168952D01*
X6953809Y-18159429D01*
X6963333Y-18140381D01*
X6963333Y-18092762D01*
X6953809Y-18073714D01*
X6944286Y-18064190D01*
X6925238Y-18054667D01*
X6887143Y-18054667D01*
X6868095Y-18064190D01*
X6858571Y-18073714D01*
X6849048Y-18092762D01*
X7201428Y-18178476D02*
X7201428Y-17978476D01*
X7287143Y-18178476D02*
X7287143Y-18073714D01*
X7277619Y-18054667D01*
X7258571Y-18045143D01*
X7230000Y-18045143D01*
X7210952Y-18054667D01*
X7201428Y-18064190D01*
X7410952Y-18178476D02*
X7391905Y-18168952D01*
X7382381Y-18159429D01*
X7372857Y-18140381D01*
X7372857Y-18083238D01*
X7382381Y-18064190D01*
X7391905Y-18054667D01*
X7410952Y-18045143D01*
X7439524Y-18045143D01*
X7458571Y-18054667D01*
X7468095Y-18064190D01*
X7477619Y-18083238D01*
X7477619Y-18140381D01*
X7468095Y-18159429D01*
X7458571Y-18168952D01*
X7439524Y-18178476D01*
X7410952Y-18178476D01*
X7591905Y-18178476D02*
X7572857Y-18168952D01*
X7563333Y-18149905D01*
X7563333Y-17978476D01*
X7744286Y-18168952D02*
X7725238Y-18178476D01*
X7687143Y-18178476D01*
X7668095Y-18168952D01*
X7658571Y-18149905D01*
X7658571Y-18073714D01*
X7668095Y-18054667D01*
X7687143Y-18045143D01*
X7725238Y-18045143D01*
X7744286Y-18054667D01*
X7753809Y-18073714D01*
X7753809Y-18092762D01*
X7658571Y-18111810D01*
X7830000Y-18168952D02*
X7849048Y-18178476D01*
X7887143Y-18178476D01*
X7906190Y-18168952D01*
X7915714Y-18149905D01*
X7915714Y-18140381D01*
X7906190Y-18121333D01*
X7887143Y-18111810D01*
X7858571Y-18111810D01*
X7839524Y-18102286D01*
X7830000Y-18083238D01*
X7830000Y-18073714D01*
X7839524Y-18054667D01*
X7858571Y-18045143D01*
X7887143Y-18045143D01*
X7906190Y-18054667D01*
X7982381Y-18254667D02*
X7991905Y-18245143D01*
X8010952Y-18216571D01*
X8020476Y-18197524D01*
X8030000Y-18168952D01*
X8039524Y-18121333D01*
X8039524Y-18083238D01*
X8030000Y-18035619D01*
X8020476Y-18007048D01*
X8010952Y-17988000D01*
X7991905Y-17959429D01*
X7982381Y-17949905D01*
D15*
X3009017Y-18378517D02*
X3009017Y-18325483D01*
X2955983Y-18325483D01*
X2955983Y-18378517D01*
X3009017Y-18378517D01*
D11*
X3315714Y-18242476D02*
X3334762Y-18242476D01*
X3353809Y-18252000D01*
X3363333Y-18261524D01*
X3372857Y-18280571D01*
X3382381Y-18318667D01*
X3382381Y-18366286D01*
X3372857Y-18404381D01*
X3363333Y-18423429D01*
X3353809Y-18432952D01*
X3334762Y-18442476D01*
X3315714Y-18442476D01*
X3296667Y-18432952D01*
X3287143Y-18423429D01*
X3277619Y-18404381D01*
X3268095Y-18366286D01*
X3268095Y-18318667D01*
X3277619Y-18280571D01*
X3287143Y-18261524D01*
X3296667Y-18252000D01*
X3315714Y-18242476D01*
X3468095Y-18423429D02*
X3477619Y-18432952D01*
X3468095Y-18442476D01*
X3458571Y-18432952D01*
X3468095Y-18423429D01*
X3468095Y-18442476D01*
X3544286Y-18242476D02*
X3677619Y-18242476D01*
X3591905Y-18442476D01*
X3849048Y-18242476D02*
X3753809Y-18242476D01*
X3744286Y-18337714D01*
X3753809Y-18328190D01*
X3772857Y-18318667D01*
X3820476Y-18318667D01*
X3839524Y-18328190D01*
X3849048Y-18337714D01*
X3858571Y-18356762D01*
X3858571Y-18404381D01*
X3849048Y-18423429D01*
X3839524Y-18432952D01*
X3820476Y-18442476D01*
X3772857Y-18442476D01*
X3753809Y-18432952D01*
X3744286Y-18423429D01*
X3982381Y-18242476D02*
X4001428Y-18242476D01*
X4020476Y-18252000D01*
X4030000Y-18261524D01*
X4039524Y-18280571D01*
X4049048Y-18318667D01*
X4049048Y-18366286D01*
X4039524Y-18404381D01*
X4030000Y-18423429D01*
X4020476Y-18432952D01*
X4001428Y-18442476D01*
X3982381Y-18442476D01*
X3963333Y-18432952D01*
X3953809Y-18423429D01*
X3944286Y-18404381D01*
X3934762Y-18366286D01*
X3934762Y-18318667D01*
X3944286Y-18280571D01*
X3953809Y-18261524D01*
X3963333Y-18252000D01*
X3982381Y-18242476D01*
X4134762Y-18442476D02*
X4134762Y-18309143D01*
X4134762Y-18328190D02*
X4144286Y-18318667D01*
X4163333Y-18309143D01*
X4191905Y-18309143D01*
X4210952Y-18318667D01*
X4220476Y-18337714D01*
X4220476Y-18442476D01*
X4220476Y-18337714D02*
X4230000Y-18318667D01*
X4249048Y-18309143D01*
X4277619Y-18309143D01*
X4296667Y-18318667D01*
X4306190Y-18337714D01*
X4306190Y-18442476D01*
X4401429Y-18442476D02*
X4401429Y-18309143D01*
X4401429Y-18328190D02*
X4410952Y-18318667D01*
X4430000Y-18309143D01*
X4458571Y-18309143D01*
X4477619Y-18318667D01*
X4487143Y-18337714D01*
X4487143Y-18442476D01*
X4487143Y-18337714D02*
X4496667Y-18318667D01*
X4515714Y-18309143D01*
X4544286Y-18309143D01*
X4563333Y-18318667D01*
X4572857Y-18337714D01*
X4572857Y-18442476D01*
X4963333Y-18232952D02*
X4791905Y-18490095D01*
X5220476Y-18242476D02*
X5239524Y-18242476D01*
X5258571Y-18252000D01*
X5268095Y-18261524D01*
X5277619Y-18280571D01*
X5287143Y-18318667D01*
X5287143Y-18366286D01*
X5277619Y-18404381D01*
X5268095Y-18423429D01*
X5258571Y-18432952D01*
X5239524Y-18442476D01*
X5220476Y-18442476D01*
X5201429Y-18432952D01*
X5191905Y-18423429D01*
X5182381Y-18404381D01*
X5172857Y-18366286D01*
X5172857Y-18318667D01*
X5182381Y-18280571D01*
X5191905Y-18261524D01*
X5201429Y-18252000D01*
X5220476Y-18242476D01*
X5372857Y-18423429D02*
X5382381Y-18432952D01*
X5372857Y-18442476D01*
X5363333Y-18432952D01*
X5372857Y-18423429D01*
X5372857Y-18442476D01*
X5506190Y-18242476D02*
X5525238Y-18242476D01*
X5544286Y-18252000D01*
X5553810Y-18261524D01*
X5563333Y-18280571D01*
X5572857Y-18318667D01*
X5572857Y-18366286D01*
X5563333Y-18404381D01*
X5553810Y-18423429D01*
X5544286Y-18432952D01*
X5525238Y-18442476D01*
X5506190Y-18442476D01*
X5487143Y-18432952D01*
X5477619Y-18423429D01*
X5468095Y-18404381D01*
X5458571Y-18366286D01*
X5458571Y-18318667D01*
X5468095Y-18280571D01*
X5477619Y-18261524D01*
X5487143Y-18252000D01*
X5506190Y-18242476D01*
X5649048Y-18261524D02*
X5658571Y-18252000D01*
X5677619Y-18242476D01*
X5725238Y-18242476D01*
X5744286Y-18252000D01*
X5753809Y-18261524D01*
X5763333Y-18280571D01*
X5763333Y-18299619D01*
X5753809Y-18328190D01*
X5639524Y-18442476D01*
X5763333Y-18442476D01*
X5858571Y-18442476D02*
X5896667Y-18442476D01*
X5915714Y-18432952D01*
X5925238Y-18423429D01*
X5944286Y-18394857D01*
X5953809Y-18356762D01*
X5953809Y-18280571D01*
X5944286Y-18261524D01*
X5934762Y-18252000D01*
X5915714Y-18242476D01*
X5877619Y-18242476D01*
X5858571Y-18252000D01*
X5849048Y-18261524D01*
X5839524Y-18280571D01*
X5839524Y-18328190D01*
X5849048Y-18347238D01*
X5858571Y-18356762D01*
X5877619Y-18366286D01*
X5915714Y-18366286D01*
X5934762Y-18356762D01*
X5944286Y-18347238D01*
X5953809Y-18328190D01*
X6134762Y-18242476D02*
X6039524Y-18242476D01*
X6030000Y-18337714D01*
X6039524Y-18328190D01*
X6058571Y-18318667D01*
X6106190Y-18318667D01*
X6125238Y-18328190D01*
X6134762Y-18337714D01*
X6144286Y-18356762D01*
X6144286Y-18404381D01*
X6134762Y-18423429D01*
X6125238Y-18432952D01*
X6106190Y-18442476D01*
X6058571Y-18442476D01*
X6039524Y-18432952D01*
X6030000Y-18423429D01*
X6220476Y-18242476D02*
X6220476Y-18280571D01*
X6296667Y-18242476D02*
X6296667Y-18280571D01*
X6591905Y-18518667D02*
X6582381Y-18509143D01*
X6563333Y-18480571D01*
X6553809Y-18461524D01*
X6544286Y-18432952D01*
X6534762Y-18385333D01*
X6534762Y-18347238D01*
X6544286Y-18299619D01*
X6553809Y-18271048D01*
X6563333Y-18252000D01*
X6582381Y-18223429D01*
X6591905Y-18213905D01*
X6763333Y-18242476D02*
X6668095Y-18242476D01*
X6658571Y-18337714D01*
X6668095Y-18328190D01*
X6687143Y-18318667D01*
X6734762Y-18318667D01*
X6753809Y-18328190D01*
X6763333Y-18337714D01*
X6772857Y-18356762D01*
X6772857Y-18404381D01*
X6763333Y-18423429D01*
X6753809Y-18432952D01*
X6734762Y-18442476D01*
X6687143Y-18442476D01*
X6668095Y-18432952D01*
X6658571Y-18423429D01*
X7010952Y-18442476D02*
X7010952Y-18242476D01*
X7096667Y-18442476D02*
X7096667Y-18337714D01*
X7087143Y-18318667D01*
X7068095Y-18309143D01*
X7039524Y-18309143D01*
X7020476Y-18318667D01*
X7010952Y-18328190D01*
X7220476Y-18442476D02*
X7201428Y-18432952D01*
X7191905Y-18423429D01*
X7182381Y-18404381D01*
X7182381Y-18347238D01*
X7191905Y-18328190D01*
X7201428Y-18318667D01*
X7220476Y-18309143D01*
X7249048Y-18309143D01*
X7268095Y-18318667D01*
X7277619Y-18328190D01*
X7287143Y-18347238D01*
X7287143Y-18404381D01*
X7277619Y-18423429D01*
X7268095Y-18432952D01*
X7249048Y-18442476D01*
X7220476Y-18442476D01*
X7401428Y-18442476D02*
X7382381Y-18432952D01*
X7372857Y-18413905D01*
X7372857Y-18242476D01*
X7553809Y-18432952D02*
X7534762Y-18442476D01*
X7496667Y-18442476D01*
X7477619Y-18432952D01*
X7468095Y-18413905D01*
X7468095Y-18337714D01*
X7477619Y-18318667D01*
X7496667Y-18309143D01*
X7534762Y-18309143D01*
X7553809Y-18318667D01*
X7563333Y-18337714D01*
X7563333Y-18356762D01*
X7468095Y-18375810D01*
X7639524Y-18432952D02*
X7658571Y-18442476D01*
X7696667Y-18442476D01*
X7715714Y-18432952D01*
X7725238Y-18413905D01*
X7725238Y-18404381D01*
X7715714Y-18385333D01*
X7696667Y-18375810D01*
X7668095Y-18375810D01*
X7649048Y-18366286D01*
X7639524Y-18347238D01*
X7639524Y-18337714D01*
X7649048Y-18318667D01*
X7668095Y-18309143D01*
X7696667Y-18309143D01*
X7715714Y-18318667D01*
X7791905Y-18518667D02*
X7801428Y-18509143D01*
X7820476Y-18480571D01*
X7830000Y-18461524D01*
X7839524Y-18432952D01*
X7849048Y-18385333D01*
X7849048Y-18347238D01*
X7839524Y-18299619D01*
X7830000Y-18271048D01*
X7820476Y-18252000D01*
X7801428Y-18223429D01*
X7791905Y-18213905D01*
D16*
X2980000Y-18656000D02*
X3020000Y-18616000D01*
X2980000Y-18576000D01*
X2940000Y-18616000D01*
X2980000Y-18656000D01*
D11*
X3315714Y-18506476D02*
X3334762Y-18506476D01*
X3353809Y-18516000D01*
X3363333Y-18525524D01*
X3372857Y-18544571D01*
X3382381Y-18582667D01*
X3382381Y-18630286D01*
X3372857Y-18668381D01*
X3363333Y-18687429D01*
X3353809Y-18696952D01*
X3334762Y-18706476D01*
X3315714Y-18706476D01*
X3296667Y-18696952D01*
X3287143Y-18687429D01*
X3277619Y-18668381D01*
X3268095Y-18630286D01*
X3268095Y-18582667D01*
X3277619Y-18544571D01*
X3287143Y-18525524D01*
X3296667Y-18516000D01*
X3315714Y-18506476D01*
X3468095Y-18687429D02*
X3477619Y-18696952D01*
X3468095Y-18706476D01*
X3458571Y-18696952D01*
X3468095Y-18687429D01*
X3468095Y-18706476D01*
X3591905Y-18592190D02*
X3572857Y-18582667D01*
X3563333Y-18573143D01*
X3553809Y-18554095D01*
X3553809Y-18544571D01*
X3563333Y-18525524D01*
X3572857Y-18516000D01*
X3591905Y-18506476D01*
X3630000Y-18506476D01*
X3649048Y-18516000D01*
X3658571Y-18525524D01*
X3668095Y-18544571D01*
X3668095Y-18554095D01*
X3658571Y-18573143D01*
X3649048Y-18582667D01*
X3630000Y-18592190D01*
X3591905Y-18592190D01*
X3572857Y-18601714D01*
X3563333Y-18611238D01*
X3553809Y-18630286D01*
X3553809Y-18668381D01*
X3563333Y-18687429D01*
X3572857Y-18696952D01*
X3591905Y-18706476D01*
X3630000Y-18706476D01*
X3649048Y-18696952D01*
X3658571Y-18687429D01*
X3668095Y-18668381D01*
X3668095Y-18630286D01*
X3658571Y-18611238D01*
X3649048Y-18601714D01*
X3630000Y-18592190D01*
X3791905Y-18506476D02*
X3810952Y-18506476D01*
X3830000Y-18516000D01*
X3839524Y-18525524D01*
X3849048Y-18544571D01*
X3858571Y-18582667D01*
X3858571Y-18630286D01*
X3849048Y-18668381D01*
X3839524Y-18687429D01*
X3830000Y-18696952D01*
X3810952Y-18706476D01*
X3791905Y-18706476D01*
X3772857Y-18696952D01*
X3763333Y-18687429D01*
X3753809Y-18668381D01*
X3744286Y-18630286D01*
X3744286Y-18582667D01*
X3753809Y-18544571D01*
X3763333Y-18525524D01*
X3772857Y-18516000D01*
X3791905Y-18506476D01*
X3982381Y-18506476D02*
X4001428Y-18506476D01*
X4020476Y-18516000D01*
X4030000Y-18525524D01*
X4039524Y-18544571D01*
X4049048Y-18582667D01*
X4049048Y-18630286D01*
X4039524Y-18668381D01*
X4030000Y-18687429D01*
X4020476Y-18696952D01*
X4001428Y-18706476D01*
X3982381Y-18706476D01*
X3963333Y-18696952D01*
X3953809Y-18687429D01*
X3944286Y-18668381D01*
X3934762Y-18630286D01*
X3934762Y-18582667D01*
X3944286Y-18544571D01*
X3953809Y-18525524D01*
X3963333Y-18516000D01*
X3982381Y-18506476D01*
X4134762Y-18706476D02*
X4134762Y-18573143D01*
X4134762Y-18592190D02*
X4144286Y-18582667D01*
X4163333Y-18573143D01*
X4191905Y-18573143D01*
X4210952Y-18582667D01*
X4220476Y-18601714D01*
X4220476Y-18706476D01*
X4220476Y-18601714D02*
X4230000Y-18582667D01*
X4249048Y-18573143D01*
X4277619Y-18573143D01*
X4296667Y-18582667D01*
X4306190Y-18601714D01*
X4306190Y-18706476D01*
X4401429Y-18706476D02*
X4401429Y-18573143D01*
X4401429Y-18592190D02*
X4410952Y-18582667D01*
X4430000Y-18573143D01*
X4458571Y-18573143D01*
X4477619Y-18582667D01*
X4487143Y-18601714D01*
X4487143Y-18706476D01*
X4487143Y-18601714D02*
X4496667Y-18582667D01*
X4515714Y-18573143D01*
X4544286Y-18573143D01*
X4563333Y-18582667D01*
X4572857Y-18601714D01*
X4572857Y-18706476D01*
X4963333Y-18496952D02*
X4791905Y-18754095D01*
X5220476Y-18506476D02*
X5239524Y-18506476D01*
X5258571Y-18516000D01*
X5268095Y-18525524D01*
X5277619Y-18544571D01*
X5287143Y-18582667D01*
X5287143Y-18630286D01*
X5277619Y-18668381D01*
X5268095Y-18687429D01*
X5258571Y-18696952D01*
X5239524Y-18706476D01*
X5220476Y-18706476D01*
X5201429Y-18696952D01*
X5191905Y-18687429D01*
X5182381Y-18668381D01*
X5172857Y-18630286D01*
X5172857Y-18582667D01*
X5182381Y-18544571D01*
X5191905Y-18525524D01*
X5201429Y-18516000D01*
X5220476Y-18506476D01*
X5372857Y-18687429D02*
X5382381Y-18696952D01*
X5372857Y-18706476D01*
X5363333Y-18696952D01*
X5372857Y-18687429D01*
X5372857Y-18706476D01*
X5506190Y-18506476D02*
X5525238Y-18506476D01*
X5544286Y-18516000D01*
X5553810Y-18525524D01*
X5563333Y-18544571D01*
X5572857Y-18582667D01*
X5572857Y-18630286D01*
X5563333Y-18668381D01*
X5553810Y-18687429D01*
X5544286Y-18696952D01*
X5525238Y-18706476D01*
X5506190Y-18706476D01*
X5487143Y-18696952D01*
X5477619Y-18687429D01*
X5468095Y-18668381D01*
X5458571Y-18630286D01*
X5458571Y-18582667D01*
X5468095Y-18544571D01*
X5477619Y-18525524D01*
X5487143Y-18516000D01*
X5506190Y-18506476D01*
X5639524Y-18506476D02*
X5763333Y-18506476D01*
X5696667Y-18582667D01*
X5725238Y-18582667D01*
X5744286Y-18592190D01*
X5753809Y-18601714D01*
X5763333Y-18620762D01*
X5763333Y-18668381D01*
X5753809Y-18687429D01*
X5744286Y-18696952D01*
X5725238Y-18706476D01*
X5668095Y-18706476D01*
X5649048Y-18696952D01*
X5639524Y-18687429D01*
X5953809Y-18706476D02*
X5839524Y-18706476D01*
X5896667Y-18706476D02*
X5896667Y-18506476D01*
X5877619Y-18535048D01*
X5858571Y-18554095D01*
X5839524Y-18563619D01*
X6134762Y-18506476D02*
X6039524Y-18506476D01*
X6030000Y-18601714D01*
X6039524Y-18592190D01*
X6058571Y-18582667D01*
X6106190Y-18582667D01*
X6125238Y-18592190D01*
X6134762Y-18601714D01*
X6144286Y-18620762D01*
X6144286Y-18668381D01*
X6134762Y-18687429D01*
X6125238Y-18696952D01*
X6106190Y-18706476D01*
X6058571Y-18706476D01*
X6039524Y-18696952D01*
X6030000Y-18687429D01*
X6220476Y-18506476D02*
X6220476Y-18544571D01*
X6296667Y-18506476D02*
X6296667Y-18544571D01*
X6591905Y-18782667D02*
X6582381Y-18773143D01*
X6563333Y-18744571D01*
X6553809Y-18725524D01*
X6544286Y-18696952D01*
X6534762Y-18649333D01*
X6534762Y-18611238D01*
X6544286Y-18563619D01*
X6553809Y-18535048D01*
X6563333Y-18516000D01*
X6582381Y-18487429D01*
X6591905Y-18477905D01*
X6658571Y-18525524D02*
X6668095Y-18516000D01*
X6687143Y-18506476D01*
X6734762Y-18506476D01*
X6753809Y-18516000D01*
X6763333Y-18525524D01*
X6772857Y-18544571D01*
X6772857Y-18563619D01*
X6763333Y-18592190D01*
X6649048Y-18706476D01*
X6772857Y-18706476D01*
X7010952Y-18706476D02*
X7010952Y-18506476D01*
X7096667Y-18706476D02*
X7096667Y-18601714D01*
X7087143Y-18582667D01*
X7068095Y-18573143D01*
X7039524Y-18573143D01*
X7020476Y-18582667D01*
X7010952Y-18592190D01*
X7220476Y-18706476D02*
X7201428Y-18696952D01*
X7191905Y-18687429D01*
X7182381Y-18668381D01*
X7182381Y-18611238D01*
X7191905Y-18592190D01*
X7201428Y-18582667D01*
X7220476Y-18573143D01*
X7249048Y-18573143D01*
X7268095Y-18582667D01*
X7277619Y-18592190D01*
X7287143Y-18611238D01*
X7287143Y-18668381D01*
X7277619Y-18687429D01*
X7268095Y-18696952D01*
X7249048Y-18706476D01*
X7220476Y-18706476D01*
X7401428Y-18706476D02*
X7382381Y-18696952D01*
X7372857Y-18677905D01*
X7372857Y-18506476D01*
X7553809Y-18696952D02*
X7534762Y-18706476D01*
X7496667Y-18706476D01*
X7477619Y-18696952D01*
X7468095Y-18677905D01*
X7468095Y-18601714D01*
X7477619Y-18582667D01*
X7496667Y-18573143D01*
X7534762Y-18573143D01*
X7553809Y-18582667D01*
X7563333Y-18601714D01*
X7563333Y-18620762D01*
X7468095Y-18639810D01*
X7639524Y-18696952D02*
X7658571Y-18706476D01*
X7696667Y-18706476D01*
X7715714Y-18696952D01*
X7725238Y-18677905D01*
X7725238Y-18668381D01*
X7715714Y-18649333D01*
X7696667Y-18639810D01*
X7668095Y-18639810D01*
X7649048Y-18630286D01*
X7639524Y-18611238D01*
X7639524Y-18601714D01*
X7649048Y-18582667D01*
X7668095Y-18573143D01*
X7696667Y-18573143D01*
X7715714Y-18582667D01*
X7791905Y-18782667D02*
X7801428Y-18773143D01*
X7820476Y-18744571D01*
X7830000Y-18725524D01*
X7839524Y-18696952D01*
X7849048Y-18649333D01*
X7849048Y-18611238D01*
X7839524Y-18563619D01*
X7830000Y-18535048D01*
X7820476Y-18516000D01*
X7801428Y-18487429D01*
X7791905Y-18477905D01*
D17*
X2920000Y-18830000D02*
X3020000Y-18930000D01*
X3020000Y-18830000D02*
X2920000Y-18930000D01*
X3020000Y-18880000D02*
G75*
G03*
X3020000Y-18880000I-50000J0D01*
G01*
D11*
X3382381Y-18970476D02*
X3268095Y-18970476D01*
X3325238Y-18970476D02*
X3325238Y-18770476D01*
X3306190Y-18799048D01*
X3287143Y-18818095D01*
X3268095Y-18827619D01*
X3468095Y-18951429D02*
X3477619Y-18960952D01*
X3468095Y-18970476D01*
X3458571Y-18960952D01*
X3468095Y-18951429D01*
X3468095Y-18970476D01*
X3601428Y-18770476D02*
X3620476Y-18770476D01*
X3639524Y-18780000D01*
X3649048Y-18789524D01*
X3658571Y-18808571D01*
X3668095Y-18846667D01*
X3668095Y-18894286D01*
X3658571Y-18932381D01*
X3649048Y-18951429D01*
X3639524Y-18960952D01*
X3620476Y-18970476D01*
X3601428Y-18970476D01*
X3582381Y-18960952D01*
X3572857Y-18951429D01*
X3563333Y-18932381D01*
X3553809Y-18894286D01*
X3553809Y-18846667D01*
X3563333Y-18808571D01*
X3572857Y-18789524D01*
X3582381Y-18780000D01*
X3601428Y-18770476D01*
X3791905Y-18770476D02*
X3810952Y-18770476D01*
X3830000Y-18780000D01*
X3839524Y-18789524D01*
X3849048Y-18808571D01*
X3858571Y-18846667D01*
X3858571Y-18894286D01*
X3849048Y-18932381D01*
X3839524Y-18951429D01*
X3830000Y-18960952D01*
X3810952Y-18970476D01*
X3791905Y-18970476D01*
X3772857Y-18960952D01*
X3763333Y-18951429D01*
X3753809Y-18932381D01*
X3744286Y-18894286D01*
X3744286Y-18846667D01*
X3753809Y-18808571D01*
X3763333Y-18789524D01*
X3772857Y-18780000D01*
X3791905Y-18770476D01*
X3982381Y-18770476D02*
X4001428Y-18770476D01*
X4020476Y-18780000D01*
X4030000Y-18789524D01*
X4039524Y-18808571D01*
X4049048Y-18846667D01*
X4049048Y-18894286D01*
X4039524Y-18932381D01*
X4030000Y-18951429D01*
X4020476Y-18960952D01*
X4001428Y-18970476D01*
X3982381Y-18970476D01*
X3963333Y-18960952D01*
X3953809Y-18951429D01*
X3944286Y-18932381D01*
X3934762Y-18894286D01*
X3934762Y-18846667D01*
X3944286Y-18808571D01*
X3953809Y-18789524D01*
X3963333Y-18780000D01*
X3982381Y-18770476D01*
X4134762Y-18970476D02*
X4134762Y-18837143D01*
X4134762Y-18856190D02*
X4144286Y-18846667D01*
X4163333Y-18837143D01*
X4191905Y-18837143D01*
X4210952Y-18846667D01*
X4220476Y-18865714D01*
X4220476Y-18970476D01*
X4220476Y-18865714D02*
X4230000Y-18846667D01*
X4249048Y-18837143D01*
X4277619Y-18837143D01*
X4296667Y-18846667D01*
X4306190Y-18865714D01*
X4306190Y-18970476D01*
X4401429Y-18970476D02*
X4401429Y-18837143D01*
X4401429Y-18856190D02*
X4410952Y-18846667D01*
X4430000Y-18837143D01*
X4458571Y-18837143D01*
X4477619Y-18846667D01*
X4487143Y-18865714D01*
X4487143Y-18970476D01*
X4487143Y-18865714D02*
X4496667Y-18846667D01*
X4515714Y-18837143D01*
X4544286Y-18837143D01*
X4563333Y-18846667D01*
X4572857Y-18865714D01*
X4572857Y-18970476D01*
X4963333Y-18760952D02*
X4791905Y-19018095D01*
X5220476Y-18770476D02*
X5239524Y-18770476D01*
X5258571Y-18780000D01*
X5268095Y-18789524D01*
X5277619Y-18808571D01*
X5287143Y-18846667D01*
X5287143Y-18894286D01*
X5277619Y-18932381D01*
X5268095Y-18951429D01*
X5258571Y-18960952D01*
X5239524Y-18970476D01*
X5220476Y-18970476D01*
X5201429Y-18960952D01*
X5191905Y-18951429D01*
X5182381Y-18932381D01*
X5172857Y-18894286D01*
X5172857Y-18846667D01*
X5182381Y-18808571D01*
X5191905Y-18789524D01*
X5201429Y-18780000D01*
X5220476Y-18770476D01*
X5372857Y-18951429D02*
X5382381Y-18960952D01*
X5372857Y-18970476D01*
X5363333Y-18960952D01*
X5372857Y-18951429D01*
X5372857Y-18970476D01*
X5506190Y-18770476D02*
X5525238Y-18770476D01*
X5544286Y-18780000D01*
X5553810Y-18789524D01*
X5563333Y-18808571D01*
X5572857Y-18846667D01*
X5572857Y-18894286D01*
X5563333Y-18932381D01*
X5553810Y-18951429D01*
X5544286Y-18960952D01*
X5525238Y-18970476D01*
X5506190Y-18970476D01*
X5487143Y-18960952D01*
X5477619Y-18951429D01*
X5468095Y-18932381D01*
X5458571Y-18894286D01*
X5458571Y-18846667D01*
X5468095Y-18808571D01*
X5477619Y-18789524D01*
X5487143Y-18780000D01*
X5506190Y-18770476D01*
X5639524Y-18770476D02*
X5763333Y-18770476D01*
X5696667Y-18846667D01*
X5725238Y-18846667D01*
X5744286Y-18856190D01*
X5753809Y-18865714D01*
X5763333Y-18884762D01*
X5763333Y-18932381D01*
X5753809Y-18951429D01*
X5744286Y-18960952D01*
X5725238Y-18970476D01*
X5668095Y-18970476D01*
X5649048Y-18960952D01*
X5639524Y-18951429D01*
X5858571Y-18970476D02*
X5896667Y-18970476D01*
X5915714Y-18960952D01*
X5925238Y-18951429D01*
X5944286Y-18922857D01*
X5953809Y-18884762D01*
X5953809Y-18808571D01*
X5944286Y-18789524D01*
X5934762Y-18780000D01*
X5915714Y-18770476D01*
X5877619Y-18770476D01*
X5858571Y-18780000D01*
X5849048Y-18789524D01*
X5839524Y-18808571D01*
X5839524Y-18856190D01*
X5849048Y-18875238D01*
X5858571Y-18884762D01*
X5877619Y-18894286D01*
X5915714Y-18894286D01*
X5934762Y-18884762D01*
X5944286Y-18875238D01*
X5953809Y-18856190D01*
X6125238Y-18837143D02*
X6125238Y-18970476D01*
X6077619Y-18760952D02*
X6030000Y-18903810D01*
X6153809Y-18903810D01*
X6220476Y-18770476D02*
X6220476Y-18808571D01*
X6296667Y-18770476D02*
X6296667Y-18808571D01*
X6591905Y-19046667D02*
X6582381Y-19037143D01*
X6563333Y-19008571D01*
X6553809Y-18989524D01*
X6544286Y-18960952D01*
X6534762Y-18913333D01*
X6534762Y-18875238D01*
X6544286Y-18827619D01*
X6553809Y-18799048D01*
X6563333Y-18780000D01*
X6582381Y-18751429D01*
X6591905Y-18741905D01*
X6763333Y-18770476D02*
X6668095Y-18770476D01*
X6658571Y-18865714D01*
X6668095Y-18856190D01*
X6687143Y-18846667D01*
X6734762Y-18846667D01*
X6753809Y-18856190D01*
X6763333Y-18865714D01*
X6772857Y-18884762D01*
X6772857Y-18932381D01*
X6763333Y-18951429D01*
X6753809Y-18960952D01*
X6734762Y-18970476D01*
X6687143Y-18970476D01*
X6668095Y-18960952D01*
X6658571Y-18951429D01*
X7010952Y-18970476D02*
X7010952Y-18770476D01*
X7096667Y-18970476D02*
X7096667Y-18865714D01*
X7087143Y-18846667D01*
X7068095Y-18837143D01*
X7039524Y-18837143D01*
X7020476Y-18846667D01*
X7010952Y-18856190D01*
X7220476Y-18970476D02*
X7201428Y-18960952D01*
X7191905Y-18951429D01*
X7182381Y-18932381D01*
X7182381Y-18875238D01*
X7191905Y-18856190D01*
X7201428Y-18846667D01*
X7220476Y-18837143D01*
X7249048Y-18837143D01*
X7268095Y-18846667D01*
X7277619Y-18856190D01*
X7287143Y-18875238D01*
X7287143Y-18932381D01*
X7277619Y-18951429D01*
X7268095Y-18960952D01*
X7249048Y-18970476D01*
X7220476Y-18970476D01*
X7401428Y-18970476D02*
X7382381Y-18960952D01*
X7372857Y-18941905D01*
X7372857Y-18770476D01*
X7553809Y-18960952D02*
X7534762Y-18970476D01*
X7496667Y-18970476D01*
X7477619Y-18960952D01*
X7468095Y-18941905D01*
X7468095Y-18865714D01*
X7477619Y-18846667D01*
X7496667Y-18837143D01*
X7534762Y-18837143D01*
X7553809Y-18846667D01*
X7563333Y-18865714D01*
X7563333Y-18884762D01*
X7468095Y-18903810D01*
X7639524Y-18960952D02*
X7658571Y-18970476D01*
X7696667Y-18970476D01*
X7715714Y-18960952D01*
X7725238Y-18941905D01*
X7725238Y-18932381D01*
X7715714Y-18913333D01*
X7696667Y-18903810D01*
X7668095Y-18903810D01*
X7649048Y-18894286D01*
X7639524Y-18875238D01*
X7639524Y-18865714D01*
X7649048Y-18846667D01*
X7668095Y-18837143D01*
X7696667Y-18837143D01*
X7715714Y-18846667D01*
X7791905Y-19046667D02*
X7801428Y-19037143D01*
X7820476Y-19008571D01*
X7830000Y-18989524D01*
X7839524Y-18960952D01*
X7849048Y-18913333D01*
X7849048Y-18875238D01*
X7839524Y-18827619D01*
X7830000Y-18799048D01*
X7820476Y-18780000D01*
X7801428Y-18751429D01*
X7791905Y-18741905D01*
D18*
X2900000Y-19084000D02*
X3020000Y-19204000D01*
X3020000Y-19084000D02*
X2900000Y-19204000D01*
X2960000Y-19084000D02*
X2960000Y-19204000D01*
X2900000Y-19144000D02*
X3020000Y-19144000D01*
D11*
X3382381Y-19234476D02*
X3268095Y-19234476D01*
X3325238Y-19234476D02*
X3325238Y-19034476D01*
X3306190Y-19063048D01*
X3287143Y-19082095D01*
X3268095Y-19091619D01*
X3468095Y-19215429D02*
X3477619Y-19224952D01*
X3468095Y-19234476D01*
X3458571Y-19224952D01*
X3468095Y-19215429D01*
X3468095Y-19234476D01*
X3553809Y-19053524D02*
X3563333Y-19044000D01*
X3582381Y-19034476D01*
X3630000Y-19034476D01*
X3649048Y-19044000D01*
X3658571Y-19053524D01*
X3668095Y-19072571D01*
X3668095Y-19091619D01*
X3658571Y-19120190D01*
X3544286Y-19234476D01*
X3668095Y-19234476D01*
X3791905Y-19034476D02*
X3810952Y-19034476D01*
X3830000Y-19044000D01*
X3839524Y-19053524D01*
X3849048Y-19072571D01*
X3858571Y-19110667D01*
X3858571Y-19158286D01*
X3849048Y-19196381D01*
X3839524Y-19215429D01*
X3830000Y-19224952D01*
X3810952Y-19234476D01*
X3791905Y-19234476D01*
X3772857Y-19224952D01*
X3763333Y-19215429D01*
X3753809Y-19196381D01*
X3744286Y-19158286D01*
X3744286Y-19110667D01*
X3753809Y-19072571D01*
X3763333Y-19053524D01*
X3772857Y-19044000D01*
X3791905Y-19034476D01*
X3982381Y-19034476D02*
X4001428Y-19034476D01*
X4020476Y-19044000D01*
X4030000Y-19053524D01*
X4039524Y-19072571D01*
X4049048Y-19110667D01*
X4049048Y-19158286D01*
X4039524Y-19196381D01*
X4030000Y-19215429D01*
X4020476Y-19224952D01*
X4001428Y-19234476D01*
X3982381Y-19234476D01*
X3963333Y-19224952D01*
X3953809Y-19215429D01*
X3944286Y-19196381D01*
X3934762Y-19158286D01*
X3934762Y-19110667D01*
X3944286Y-19072571D01*
X3953809Y-19053524D01*
X3963333Y-19044000D01*
X3982381Y-19034476D01*
X4134762Y-19234476D02*
X4134762Y-19101143D01*
X4134762Y-19120190D02*
X4144286Y-19110667D01*
X4163333Y-19101143D01*
X4191905Y-19101143D01*
X4210952Y-19110667D01*
X4220476Y-19129714D01*
X4220476Y-19234476D01*
X4220476Y-19129714D02*
X4230000Y-19110667D01*
X4249048Y-19101143D01*
X4277619Y-19101143D01*
X4296667Y-19110667D01*
X4306190Y-19129714D01*
X4306190Y-19234476D01*
X4401429Y-19234476D02*
X4401429Y-19101143D01*
X4401429Y-19120190D02*
X4410952Y-19110667D01*
X4430000Y-19101143D01*
X4458571Y-19101143D01*
X4477619Y-19110667D01*
X4487143Y-19129714D01*
X4487143Y-19234476D01*
X4487143Y-19129714D02*
X4496667Y-19110667D01*
X4515714Y-19101143D01*
X4544286Y-19101143D01*
X4563333Y-19110667D01*
X4572857Y-19129714D01*
X4572857Y-19234476D01*
X4963333Y-19024952D02*
X4791905Y-19282095D01*
X5220476Y-19034476D02*
X5239524Y-19034476D01*
X5258571Y-19044000D01*
X5268095Y-19053524D01*
X5277619Y-19072571D01*
X5287143Y-19110667D01*
X5287143Y-19158286D01*
X5277619Y-19196381D01*
X5268095Y-19215429D01*
X5258571Y-19224952D01*
X5239524Y-19234476D01*
X5220476Y-19234476D01*
X5201429Y-19224952D01*
X5191905Y-19215429D01*
X5182381Y-19196381D01*
X5172857Y-19158286D01*
X5172857Y-19110667D01*
X5182381Y-19072571D01*
X5191905Y-19053524D01*
X5201429Y-19044000D01*
X5220476Y-19034476D01*
X5372857Y-19215429D02*
X5382381Y-19224952D01*
X5372857Y-19234476D01*
X5363333Y-19224952D01*
X5372857Y-19215429D01*
X5372857Y-19234476D01*
X5506190Y-19034476D02*
X5525238Y-19034476D01*
X5544286Y-19044000D01*
X5553810Y-19053524D01*
X5563333Y-19072571D01*
X5572857Y-19110667D01*
X5572857Y-19158286D01*
X5563333Y-19196381D01*
X5553810Y-19215429D01*
X5544286Y-19224952D01*
X5525238Y-19234476D01*
X5506190Y-19234476D01*
X5487143Y-19224952D01*
X5477619Y-19215429D01*
X5468095Y-19196381D01*
X5458571Y-19158286D01*
X5458571Y-19110667D01*
X5468095Y-19072571D01*
X5477619Y-19053524D01*
X5487143Y-19044000D01*
X5506190Y-19034476D01*
X5744286Y-19101143D02*
X5744286Y-19234476D01*
X5696667Y-19024952D02*
X5649048Y-19167810D01*
X5772857Y-19167810D01*
X5830000Y-19034476D02*
X5963333Y-19034476D01*
X5877619Y-19234476D01*
X6030000Y-19053524D02*
X6039524Y-19044000D01*
X6058571Y-19034476D01*
X6106190Y-19034476D01*
X6125238Y-19044000D01*
X6134762Y-19053524D01*
X6144286Y-19072571D01*
X6144286Y-19091619D01*
X6134762Y-19120190D01*
X6020476Y-19234476D01*
X6144286Y-19234476D01*
X6220476Y-19034476D02*
X6220476Y-19072571D01*
X6296667Y-19034476D02*
X6296667Y-19072571D01*
X6591905Y-19310667D02*
X6582381Y-19301143D01*
X6563333Y-19272571D01*
X6553809Y-19253524D01*
X6544286Y-19224952D01*
X6534762Y-19177333D01*
X6534762Y-19139238D01*
X6544286Y-19091619D01*
X6553809Y-19063048D01*
X6563333Y-19044000D01*
X6582381Y-19015429D01*
X6591905Y-19005905D01*
X6772857Y-19234476D02*
X6658571Y-19234476D01*
X6715714Y-19234476D02*
X6715714Y-19034476D01*
X6696667Y-19063048D01*
X6677619Y-19082095D01*
X6658571Y-19091619D01*
X6887143Y-19120190D02*
X6868095Y-19110667D01*
X6858571Y-19101143D01*
X6849048Y-19082095D01*
X6849048Y-19072571D01*
X6858571Y-19053524D01*
X6868095Y-19044000D01*
X6887143Y-19034476D01*
X6925238Y-19034476D01*
X6944286Y-19044000D01*
X6953809Y-19053524D01*
X6963333Y-19072571D01*
X6963333Y-19082095D01*
X6953809Y-19101143D01*
X6944286Y-19110667D01*
X6925238Y-19120190D01*
X6887143Y-19120190D01*
X6868095Y-19129714D01*
X6858571Y-19139238D01*
X6849048Y-19158286D01*
X6849048Y-19196381D01*
X6858571Y-19215429D01*
X6868095Y-19224952D01*
X6887143Y-19234476D01*
X6925238Y-19234476D01*
X6944286Y-19224952D01*
X6953809Y-19215429D01*
X6963333Y-19196381D01*
X6963333Y-19158286D01*
X6953809Y-19139238D01*
X6944286Y-19129714D01*
X6925238Y-19120190D01*
X7201428Y-19234476D02*
X7201428Y-19034476D01*
X7287143Y-19234476D02*
X7287143Y-19129714D01*
X7277619Y-19110667D01*
X7258571Y-19101143D01*
X7230000Y-19101143D01*
X7210952Y-19110667D01*
X7201428Y-19120190D01*
X7410952Y-19234476D02*
X7391905Y-19224952D01*
X7382381Y-19215429D01*
X7372857Y-19196381D01*
X7372857Y-19139238D01*
X7382381Y-19120190D01*
X7391905Y-19110667D01*
X7410952Y-19101143D01*
X7439524Y-19101143D01*
X7458571Y-19110667D01*
X7468095Y-19120190D01*
X7477619Y-19139238D01*
X7477619Y-19196381D01*
X7468095Y-19215429D01*
X7458571Y-19224952D01*
X7439524Y-19234476D01*
X7410952Y-19234476D01*
X7591905Y-19234476D02*
X7572857Y-19224952D01*
X7563333Y-19205905D01*
X7563333Y-19034476D01*
X7744286Y-19224952D02*
X7725238Y-19234476D01*
X7687143Y-19234476D01*
X7668095Y-19224952D01*
X7658571Y-19205905D01*
X7658571Y-19129714D01*
X7668095Y-19110667D01*
X7687143Y-19101143D01*
X7725238Y-19101143D01*
X7744286Y-19110667D01*
X7753809Y-19129714D01*
X7753809Y-19148762D01*
X7658571Y-19167810D01*
X7830000Y-19224952D02*
X7849048Y-19234476D01*
X7887143Y-19234476D01*
X7906190Y-19224952D01*
X7915714Y-19205905D01*
X7915714Y-19196381D01*
X7906190Y-19177333D01*
X7887143Y-19167810D01*
X7858571Y-19167810D01*
X7839524Y-19158286D01*
X7830000Y-19139238D01*
X7830000Y-19129714D01*
X7839524Y-19110667D01*
X7858571Y-19101143D01*
X7887143Y-19101143D01*
X7906190Y-19110667D01*
X7982381Y-19310667D02*
X7991905Y-19301143D01*
X8010952Y-19272571D01*
X8020476Y-19253524D01*
X8030000Y-19224952D01*
X8039524Y-19177333D01*
X8039524Y-19139238D01*
X8030000Y-19091619D01*
X8020476Y-19063048D01*
X8010952Y-19044000D01*
X7991905Y-19015429D01*
X7982381Y-19005905D01*
M02*
