M48
; DRILL file {KiCad (5.99.0-8445-ge10025db64)} date 07/11/22 22:43:38
; FORMAT={-:-/ absolute / metric / decimal}
; #@! TF.CreationDate,2022-07-11T22:43:38+02:00
; #@! TF.GenerationSoftware,Kicad,Pcbnew,(5.99.0-8445-ge10025db64)
; #@! TF.FileFunction,Plated,1,2,PTH
FMAT,2
METRIC
T1C0.330
T2C0.400
T3C0.700
T4C0.750
T5C0.800
T6C1.000
T7C1.200
%
G90
G05
T1
X70.954Y-153.65
X70.96Y-155.55
X71.09Y-152.63
X75.526Y-155.57
X75.53Y-153.71
X79.22Y-152.92
X80.05Y-154.5
X80.05Y-155.6
X80.08Y-153.63
X83.98Y-155.66
X84.35Y-154.63
X84.42Y-153.27
X102.704Y-149.96
T2
X55.72Y-166.69
X60.03Y-135.01
X66.03Y-155.55
X66.99Y-152.5
X68.922Y-136.752
X69.45Y-156.81
X70.446Y-127.354
X71.462Y-128.116
X77.09Y-164.79
X88.4Y-132.65
X90.42Y-141.13
X93.12Y-143.735
X95.11Y-133.84
X95.11Y-136.27
X95.11Y-138.75
X96.15Y-128.83
X96.96Y-128.09
X97.69Y-133.84
X97.69Y-136.27
X97.69Y-138.75
X98.71Y-128.69
X98.97Y-147.55
X99.44Y-146.64
X100.17Y-145.81
X100.24Y-133.84
X100.24Y-136.17
X100.24Y-138.75
X101.1Y-144.37
X105.17Y-136.435
X105.22Y-135.06
T3
X69.73Y-151.25
X70.62Y-140.55
X71.51Y-151.25
X72.4Y-140.55
X73.29Y-151.25
X74.18Y-140.55
X75.07Y-151.25
X75.96Y-140.55
X76.85Y-151.25
X77.74Y-140.55
X78.63Y-151.25
X79.52Y-140.55
X80.41Y-151.25
X81.3Y-140.55
X82.19Y-151.25
X83.08Y-140.55
T4
X77.49Y-128.84
X79.49Y-128.84
X81.49Y-128.84
X83.49Y-128.84
X85.49Y-128.84
T5
X94.932Y-153.545
X99.812Y-153.545
T6
X41.225Y-139.245
X42.55Y-158.05
X43.765Y-139.245
X45.09Y-158.05
X46.305Y-139.245
T7
X33.854Y-158.88
X33.869Y-132.641
X38.51Y-130.575
X38.53Y-160.865
X43.151Y-128.509
X43.206Y-162.85
X52.2Y-154.15
X52.2Y-159.23
X52.2Y-164.31
X62.75Y-138.785
X62.75Y-143.865
X62.75Y-148.945
T0
M30
