G04 #@! TF.GenerationSoftware,KiCad,Pcbnew,(5.99.0-8445-ge10025db64)*
G04 #@! TF.CreationDate,2022-07-11T22:42:54+02:00*
G04 #@! TF.ProjectId,g100s,67313030-732e-46b6-9963-61645f706362,rev?*
G04 #@! TF.SameCoordinates,Original*
G04 #@! TF.FileFunction,Profile,NP*
%FSLAX46Y46*%
G04 Gerber Fmt 4.6, Leading zero omitted, Abs format (unit mm)*
G04 Created by KiCad (PCBNEW (5.99.0-8445-ge10025db64)) date 2022-07-11 22:42:54*
%MOMM*%
%LPD*%
G01*
G04 APERTURE LIST*
G04 #@! TA.AperFunction,Profile*
%ADD10C,0.100000*%
G04 #@! TD*
G04 #@! TA.AperFunction,Profile*
%ADD11C,0.120000*%
G04 #@! TD*
G04 APERTURE END LIST*
D10*
X50356181Y-137700003D02*
G75*
G03*
X48350000Y-139497523I-54338J-1957646D01*
G01*
X87250000Y-123150000D02*
X98750000Y-123150000D01*
X67050000Y-123150000D02*
X80350000Y-123150000D01*
X48450000Y-125250000D02*
X42950000Y-125250000D01*
X48350000Y-140600000D02*
X48350000Y-139497523D01*
X98750000Y-168150000D02*
X107650000Y-165550000D01*
X51854946Y-150299998D02*
G75*
G03*
X53850000Y-148500000I81681J1915090D01*
G01*
X36349998Y-141100001D02*
G75*
G03*
X34350000Y-142900000I-95275J-1905248D01*
G01*
X48450000Y-123150000D02*
X62050000Y-123150000D01*
X87250000Y-123150000D02*
X87250000Y-124350000D01*
X47800002Y-141099998D02*
G75*
G03*
X48350000Y-140600000I17470J533281D01*
G01*
X48450000Y-169150000D02*
X48450000Y-166150000D01*
X42950000Y-125250000D02*
X30250000Y-130750000D01*
X98750000Y-123150000D02*
X98750000Y-123650000D01*
X80350000Y-123150000D02*
X80350000Y-124350000D01*
X98750000Y-169150000D02*
X98750000Y-168150000D01*
X34350002Y-148304946D02*
G75*
G03*
X36144507Y-150300000I1908806J-87658D01*
G01*
X80350000Y-124350000D02*
X87250000Y-124350000D01*
X62050000Y-125350000D02*
X67050000Y-125350000D01*
X36350000Y-141100000D02*
X47800000Y-141100000D01*
X48450000Y-166150000D02*
X42950000Y-166150000D01*
X34350000Y-148304944D02*
X34350000Y-142900000D01*
X107650000Y-125750000D02*
X107650000Y-165550000D01*
X98750000Y-169150000D02*
X48450000Y-169150000D01*
X67050000Y-123150000D02*
X67050000Y-125350000D01*
X42950000Y-166150000D02*
X30250000Y-160750000D01*
X53850000Y-148500000D02*
X53850000Y-139706185D01*
X102450000Y-160650000D02*
G75*
G03*
X102450000Y-160650000I-2000000J0D01*
G01*
X53849999Y-139706183D02*
G75*
G03*
X52052477Y-137700000I-1963216J49350D01*
G01*
X30250000Y-160750000D02*
X30250000Y-130750000D01*
X53000000Y-131850000D02*
G75*
G03*
X53000000Y-131850000I-2000000J0D01*
G01*
X62050000Y-123150000D02*
X62050000Y-125350000D01*
X48450000Y-123150000D02*
X48450000Y-125250000D01*
X98750000Y-123650000D02*
X107650000Y-125750000D01*
X50356185Y-137700000D02*
X52052477Y-137700000D01*
X51854944Y-150300000D02*
X36144507Y-150300000D01*
D11*
X85860000Y-150200000D02*
X68600000Y-150200000D01*
X68600000Y-150200000D02*
X68600000Y-141600000D01*
X68600000Y-141600000D02*
X85860000Y-141600000D01*
X85860000Y-141600000D02*
X85860000Y-150200000D01*
M02*
